<?xml version="1.0" encoding="utf-8"?>
<!-- Generator: Adobe Illustrator 19.2.1, SVG Export Plug-In . SVG Version: 6.00 Build 0)  -->
<svg xmlns="http://www.w3.org/2000/svg" xmlns:xlink="http://www.w3.org/1999/xlink" version="1.1" id="Layer" x="0px" y="0px" width="512" height="512" viewBox="0 0 64 64" enable-background="new 0 0 64 64" xml:space="preserve">
<polygon fill="#CCE4FF" points="36,46 36,36 46,36 46,28 36,28 36,18 28,18 28,28 18,28 18,36 28,36 28,46 "/>
<path fill="#007AFF" d="M46,27h-9v-9c0-0.552-0.448-1-1-1h-8c-0.552,0-1,0.448-1,1v9h-9c-0.552,0-1,0.448-1,1v8c0,0.553,0.448,1,1,1  h9v9c0,0.553,0.448,1,1,1h8c0.552,0,1-0.447,1-1v-9h9c0.552,0,1-0.447,1-1v-8C47,27.448,46.552,27,46,27z M45,35h-9  c-0.552,0-1,0.447-1,1v9h-6v-9c0-0.553-0.448-1-1-1h-9v-6h9c0.552,0,1-0.448,1-1v-9h6v9c0,0.552,0.448,1,1,1h9V35z"/>
<path fill="#007AFF" d="M52,9H12c-1.654,0-3,1.346-3,3v40c0,1.654,1.346,3,3,3h40c1.654,0,3-1.346,3-3V12C55,10.346,53.654,9,52,9z   M53,52c0,0.552-0.449,1-1,1H12c-0.551,0-1-0.448-1-1V12c0-0.551,0.449-1,1-1h40c0.551,0,1,0.449,1,1V52z"/>
</svg>
